<?xml version='1.0' encoding='UTF-8'?>
<svg width="44.4mm" height="44.4mm" version="1.1" viewBox="0 0 44.4 44.4" xmlns="http://www.w3.org/2000/svg"><path d="M4.8,4.8H6V6H4.8zM6,4.8H7.2V6H6zM7.2,4.8H8.4V6H7.2zM8.4,4.8H9.6V6H8.4zM9.6,4.8H10.8V6H9.6zM10.8,4.8H12V6H10.8zM12,4.8H13.2V6H12zM16.8,4.8H18V6H16.8zM19.2,4.8H20.4V6H19.2zM21.6,4.8H22.8V6H21.6zM26.4,4.8H27.6V6H26.4zM27.6,4.8H28.8V6H27.6zM31.2,4.8H32.4V6H31.2zM32.4,4.8H33.6V6H32.4zM33.6,4.8H34.8V6H33.6zM34.8,4.8H36V6H34.8zM36,4.8H37.2V6H36zM37.2,4.8H38.4V6H37.2zM38.4,4.8H39.6V6H38.4zM4.8,6H6V7.2H4.8zM12,6H13.2V7.2H12zM14.4,6H15.6V7.2H14.4zM15.6,6H16.8V7.2H15.6zM16.8,6H18V7.2H16.8zM19.2,6H20.4V7.2H19.2zM20.4,6H21.6V7.2H20.4zM25.2,6H26.4V7.2H25.2zM26.4,6H27.6V7.2H26.4zM27.6,6H28.8V7.2H27.6zM31.2,6H32.4V7.2H31.2zM38.4,6H39.6V7.2H38.4zM4.8,7.2H6V8.4H4.8zM7.2,7.2H8.4V8.4H7.2zM8.4,7.2H9.6V8.4H8.4zM9.6,7.2H10.8V8.4H9.6zM12,7.2H13.2V8.4H12zM16.8,7.2H18V8.4H16.8zM18,7.2H19.2V8.4H18zM19.2,7.2H20.4V8.4H19.2zM22.8,7.2H24V8.4H22.8zM27.6,7.2H28.8V8.4H27.6zM31.2,7.2H32.4V8.4H31.2zM33.6,7.2H34.8V8.4H33.6zM34.8,7.2H36V8.4H34.8zM36,7.2H37.2V8.4H36zM38.4,7.2H39.6V8.4H38.4zM4.8,8.4H6V9.6H4.8zM7.2,8.4H8.4V9.6H7.2zM8.4,8.4H9.6V9.6H8.4zM9.6,8.4H10.8V9.6H9.6zM12,8.4H13.2V9.6H12zM15.6,8.4H16.8V9.6H15.6zM18,8.4H19.2V9.6H18zM20.4,8.4H21.6V9.6H20.4zM24,8.4H25.2V9.6H24zM26.4,8.4H27.6V9.6H26.4zM27.6,8.4H28.8V9.6H27.6zM28.8,8.4H30V9.6H28.8zM31.2,8.4H32.4V9.6H31.2zM33.6,8.4H34.8V9.6H33.6zM34.8,8.4H36V9.6H34.8zM36,8.4H37.2V9.6H36zM38.4,8.4H39.6V9.6H38.4zM4.8,9.6H6V10.8H4.8zM7.2,9.6H8.4V10.8H7.2zM8.4,9.6H9.6V10.8H8.4zM9.6,9.6H10.8V10.8H9.6zM12,9.6H13.2V10.8H12zM14.4,9.6H15.6V10.8H14.4zM16.8,9.6H18V10.8H16.8zM20.4,9.6H21.6V10.8H20.4zM24,9.6H25.2V10.8H24zM27.6,9.6H28.8V10.8H27.6zM31.2,9.6H32.4V10.8H31.2zM33.6,9.6H34.8V10.8H33.6zM34.8,9.6H36V10.8H34.8zM36,9.6H37.2V10.8H36zM38.4,9.6H39.6V10.8H38.4zM4.8,10.8H6V12H4.8zM12,10.8H13.2V12H12zM15.6,10.8H16.8V12H15.6zM18,10.8H19.2V12H18zM21.6,10.8H22.8V12H21.6zM22.8,10.8H24V12H22.8zM24,10.8H25.2V12H24zM27.6,10.8H28.8V12H27.6zM31.2,10.8H32.4V12H31.2zM38.4,10.8H39.6V12H38.4zM4.8,12H6V13.2H4.8zM6,12H7.2V13.2H6zM7.2,12H8.4V13.2H7.2zM8.4,12H9.6V13.2H8.4zM9.6,12H10.8V13.2H9.6zM10.8,12H12V13.2H10.8zM12,12H13.2V13.2H12zM14.4,12H15.6V13.2H14.4zM16.8,12H18V13.2H16.8zM19.2,12H20.4V13.2H19.2zM21.6,12H22.8V13.2H21.6zM24,12H25.2V13.2H24zM26.4,12H27.6V13.2H26.4zM28.8,12H30V13.2H28.8zM31.2,12H32.4V13.2H31.2zM32.4,12H33.6V13.2H32.4zM33.6,12H34.8V13.2H33.6zM34.8,12H36V13.2H34.8zM36,12H37.2V13.2H36zM37.2,12H38.4V13.2H37.2zM38.4,12H39.6V13.2H38.4zM15.6,13.2H16.8V14.4H15.6zM19.2,13.2H20.4V14.4H19.2zM22.8,13.2H24V14.4H22.8zM25.2,13.2H26.4V14.4H25.2zM28.8,13.2H30V14.4H28.8zM4.8,14.4H6V15.6H4.8zM7.2,14.4H8.4V15.6H7.2zM9.6,14.4H10.8V15.6H9.6zM12,14.4H13.2V15.6H12zM16.8,14.4H18V15.6H16.8zM19.2,14.4H20.4V15.6H19.2zM24,14.4H25.2V15.6H24zM25.2,14.4H26.4V15.6H25.2zM27.6,14.4H28.8V15.6H27.6zM28.8,14.4H30V15.6H28.8zM33.6,14.4H34.8V15.6H33.6zM37.2,14.4H38.4V15.6H37.2zM7.2,15.6H8.4V16.8H7.2zM8.4,15.6H9.6V16.8H8.4zM10.8,15.6H12V16.8H10.8zM14.4,15.6H15.6V16.8H14.4zM15.6,15.6H16.8V16.8H15.6zM18,15.6H19.2V16.8H18zM20.4,15.6H21.6V16.8H20.4zM22.8,15.6H24V16.8H22.8zM24,15.6H25.2V16.8H24zM25.2,15.6H26.4V16.8H25.2zM30,15.6H31.2V16.8H30zM31.2,15.6H32.4V16.8H31.2zM34.8,15.6H36V16.8H34.8zM38.4,15.6H39.6V16.8H38.4zM4.8,16.8H6V18H4.8zM10.8,16.8H12V18H10.8zM12,16.8H13.2V18H12zM13.2,16.8H14.4V18H13.2zM14.4,16.8H15.6V18H14.4zM16.8,16.8H18V18H16.8zM21.6,16.8H22.8V18H21.6zM22.8,16.8H24V18H22.8zM24,16.8H25.2V18H24zM25.2,16.8H26.4V18H25.2zM26.4,16.8H27.6V18H26.4zM28.8,16.8H30V18H28.8zM30,16.8H31.2V18H30zM31.2,16.8H32.4V18H31.2zM36,16.8H37.2V18H36zM37.2,16.8H38.4V18H37.2zM38.4,16.8H39.6V18H38.4zM6,18H7.2V19.2H6zM7.2,18H8.4V19.2H7.2zM8.4,18H9.6V19.2H8.4zM9.6,18H10.8V19.2H9.6zM10.8,18H12V19.2H10.8zM15.6,18H16.8V19.2H15.6zM20.4,18H21.6V19.2H20.4zM21.6,18H22.8V19.2H21.6zM24,18H25.2V19.2H24zM25.2,18H26.4V19.2H25.2zM26.4,18H27.6V19.2H26.4zM28.8,18H30V19.2H28.8zM32.4,18H33.6V19.2H32.4zM33.6,18H34.8V19.2H33.6zM37.2,18H38.4V19.2H37.2zM4.8,19.2H6V20.4H4.8zM6,19.2H7.2V20.4H6zM7.2,19.2H8.4V20.4H7.2zM8.4,19.2H9.6V20.4H8.4zM12,19.2H13.2V20.4H12zM13.2,19.2H14.4V20.4H13.2zM21.6,19.2H22.8V20.4H21.6zM22.8,19.2H24V20.4H22.8zM25.2,19.2H26.4V20.4H25.2zM30,19.2H31.2V20.4H30zM31.2,19.2H32.4V20.4H31.2zM32.4,19.2H33.6V20.4H32.4zM34.8,19.2H36V20.4H34.8zM37.2,19.2H38.4V20.4H37.2zM38.4,19.2H39.6V20.4H38.4zM8.4,20.4H9.6V21.6H8.4zM9.6,20.4H10.8V21.6H9.6zM14.4,20.4H15.6V21.6H14.4zM15.6,20.4H16.8V21.6H15.6zM16.8,20.4H18V21.6H16.8zM19.2,20.4H20.4V21.6H19.2zM21.6,20.4H22.8V21.6H21.6zM22.8,20.4H24V21.6H22.8zM25.2,20.4H26.4V21.6H25.2zM28.8,20.4H30V21.6H28.8zM31.2,20.4H32.4V21.6H31.2zM34.8,20.4H36V21.6H34.8zM38.4,20.4H39.6V21.6H38.4zM4.8,21.6H6V22.8H4.8zM6,21.6H7.2V22.8H6zM7.2,21.6H8.4V22.8H7.2zM12,21.6H13.2V22.8H12zM13.2,21.6H14.4V22.8H13.2zM14.4,21.6H15.6V22.8H14.4zM15.6,21.6H16.8V22.8H15.6zM18,21.6H19.2V22.8H18zM20.4,21.6H21.6V22.8H20.4zM31.2,21.6H32.4V22.8H31.2zM34.8,21.6H36V22.8H34.8zM37.2,21.6H38.4V22.8H37.2zM38.4,21.6H39.6V22.8H38.4zM9.6,22.8H10.8V24H9.6zM19.2,22.8H20.4V24H19.2zM22.8,22.8H24V24H22.8zM25.2,22.8H26.4V24H25.2zM26.4,22.8H27.6V24H26.4zM28.8,22.8H30V24H28.8zM30,22.8H31.2V24H30zM31.2,22.8H32.4V24H31.2zM32.4,22.8H33.6V24H32.4zM33.6,22.8H34.8V24H33.6zM34.8,22.8H36V24H34.8zM37.2,22.8H38.4V24H37.2zM4.8,24H6V25.2H4.8zM10.8,24H12V25.2H10.8zM12,24H13.2V25.2H12zM13.2,24H14.4V25.2H13.2zM16.8,24H18V25.2H16.8zM18,24H19.2V25.2H18zM19.2,24H20.4V25.2H19.2zM24,24H25.2V25.2H24zM25.2,24H26.4V25.2H25.2zM27.6,24H28.8V25.2H27.6zM28.8,24H30V25.2H28.8zM30,24H31.2V25.2H30zM31.2,24H32.4V25.2H31.2zM32.4,24H33.6V25.2H32.4zM34.8,24H36V25.2H34.8zM37.2,24H38.4V25.2H37.2zM38.4,24H39.6V25.2H38.4zM8.4,25.2H9.6V26.4H8.4zM10.8,25.2H12V26.4H10.8zM13.2,25.2H14.4V26.4H13.2zM18,25.2H19.2V26.4H18zM20.4,25.2H21.6V26.4H20.4zM22.8,25.2H24V26.4H22.8zM24,25.2H25.2V26.4H24zM28.8,25.2H30V26.4H28.8zM30,25.2H31.2V26.4H30zM31.2,25.2H32.4V26.4H31.2zM34.8,25.2H36V26.4H34.8zM36,25.2H37.2V26.4H36zM38.4,25.2H39.6V26.4H38.4zM4.8,26.4H6V27.6H4.8zM7.2,26.4H8.4V27.6H7.2zM8.4,26.4H9.6V27.6H8.4zM10.8,26.4H12V27.6H10.8zM12,26.4H13.2V27.6H12zM14.4,26.4H15.6V27.6H14.4zM15.6,26.4H16.8V27.6H15.6zM21.6,26.4H22.8V27.6H21.6zM22.8,26.4H24V27.6H22.8zM24,26.4H25.2V27.6H24zM28.8,26.4H30V27.6H28.8zM32.4,26.4H33.6V27.6H32.4zM33.6,26.4H34.8V27.6H33.6zM37.2,26.4H38.4V27.6H37.2zM38.4,26.4H39.6V27.6H38.4zM6,27.6H7.2V28.8H6zM7.2,27.6H8.4V28.8H7.2zM14.4,27.6H15.6V28.8H14.4zM16.8,27.6H18V28.8H16.8zM18,27.6H19.2V28.8H18zM19.2,27.6H20.4V28.8H19.2zM20.4,27.6H21.6V28.8H20.4zM21.6,27.6H22.8V28.8H21.6zM24,27.6H25.2V28.8H24zM25.2,27.6H26.4V28.8H25.2zM27.6,27.6H28.8V28.8H27.6zM28.8,27.6H30V28.8H28.8zM32.4,27.6H33.6V28.8H32.4zM33.6,27.6H34.8V28.8H33.6zM34.8,27.6H36V28.8H34.8zM37.2,27.6H38.4V28.8H37.2zM4.8,28.8H6V30H4.8zM8.4,28.8H9.6V30H8.4zM12,28.8H13.2V30H12zM13.2,28.8H14.4V30H13.2zM14.4,28.8H15.6V30H14.4zM15.6,28.8H16.8V30H15.6zM16.8,28.8H18V30H16.8zM21.6,28.8H22.8V30H21.6zM22.8,28.8H24V30H22.8zM24,28.8H25.2V30H24zM25.2,28.8H26.4V30H25.2zM26.4,28.8H27.6V30H26.4zM28.8,28.8H30V30H28.8zM30,28.8H31.2V30H30zM31.2,28.8H32.4V30H31.2zM32.4,28.8H33.6V30H32.4zM33.6,28.8H34.8V30H33.6zM14.4,30H15.6V31.2H14.4zM18,30H19.2V31.2H18zM19.2,30H20.4V31.2H19.2zM21.6,30H22.8V31.2H21.6zM22.8,30H24V31.2H22.8zM28.8,30H30V31.2H28.8zM33.6,30H34.8V31.2H33.6zM36,30H37.2V31.2H36zM37.2,30H38.4V31.2H37.2zM38.4,30H39.6V31.2H38.4zM4.8,31.2H6V32.4H4.8zM6,31.2H7.2V32.4H6zM7.2,31.2H8.4V32.4H7.2zM8.4,31.2H9.6V32.4H8.4zM9.6,31.2H10.8V32.4H9.6zM10.8,31.2H12V32.4H10.8zM12,31.2H13.2V32.4H12zM18,31.2H19.2V32.4H18zM20.4,31.2H21.6V32.4H20.4zM24,31.2H25.2V32.4H24zM25.2,31.2H26.4V32.4H25.2zM27.6,31.2H28.8V32.4H27.6zM28.8,31.2H30V32.4H28.8zM31.2,31.2H32.4V32.4H31.2zM33.6,31.2H34.8V32.4H33.6zM34.8,31.2H36V32.4H34.8zM37.2,31.2H38.4V32.4H37.2zM38.4,31.2H39.6V32.4H38.4zM4.8,32.4H6V33.6H4.8zM12,32.4H13.2V33.6H12zM15.6,32.4H16.8V33.6H15.6zM16.8,32.4H18V33.6H16.8zM19.2,32.4H20.4V33.6H19.2zM22.8,32.4H24V33.6H22.8zM25.2,32.4H26.4V33.6H25.2zM28.8,32.4H30V33.6H28.8zM33.6,32.4H34.8V33.6H33.6zM34.8,32.4H36V33.6H34.8zM38.4,32.4H39.6V33.6H38.4zM4.8,33.6H6V34.8H4.8zM7.2,33.6H8.4V34.8H7.2zM8.4,33.6H9.6V34.8H8.4zM9.6,33.6H10.8V34.8H9.6zM12,33.6H13.2V34.8H12zM14.4,33.6H15.6V34.8H14.4zM15.6,33.6H16.8V34.8H15.6zM16.8,33.6H18V34.8H16.8zM18,33.6H19.2V34.8H18zM19.2,33.6H20.4V34.8H19.2zM25.2,33.6H26.4V34.8H25.2zM28.8,33.6H30V34.8H28.8zM30,33.6H31.2V34.8H30zM31.2,33.6H32.4V34.8H31.2zM32.4,33.6H33.6V34.8H32.4zM33.6,33.6H34.8V34.8H33.6zM37.2,33.6H38.4V34.8H37.2zM4.8,34.8H6V36H4.8zM7.2,34.8H8.4V36H7.2zM8.4,34.8H9.6V36H8.4zM9.6,34.8H10.8V36H9.6zM12,34.8H13.2V36H12zM16.8,34.8H18V36H16.8zM18,34.8H19.2V36H18zM19.2,34.8H20.4V36H19.2zM20.4,34.8H21.6V36H20.4zM24,34.8H25.2V36H24zM25.2,34.8H26.4V36H25.2zM32.4,34.8H33.6V36H32.4zM33.6,34.8H34.8V36H33.6zM36,34.8H37.2V36H36zM4.8,36H6V37.2H4.8zM7.2,36H8.4V37.2H7.2zM8.4,36H9.6V37.2H8.4zM9.6,36H10.8V37.2H9.6zM12,36H13.2V37.2H12zM14.4,36H15.6V37.2H14.4zM18,36H19.2V37.2H18zM19.2,36H20.4V37.2H19.2zM20.4,36H21.6V37.2H20.4zM21.6,36H22.8V37.2H21.6zM24,36H25.2V37.2H24zM26.4,36H27.6V37.2H26.4zM27.6,36H28.8V37.2H27.6zM32.4,36H33.6V37.2H32.4zM33.6,36H34.8V37.2H33.6zM34.8,36H36V37.2H34.8zM38.4,36H39.6V37.2H38.4zM4.8,37.2H6V38.4H4.8zM12,37.2H13.2V38.4H12zM16.8,37.2H18V38.4H16.8zM20.4,37.2H21.6V38.4H20.4zM21.6,37.2H22.8V38.4H21.6zM22.8,37.2H24V38.4H22.8zM25.2,37.2H26.4V38.4H25.2zM26.4,37.2H27.6V38.4H26.4zM27.6,37.2H28.8V38.4H27.6zM28.8,37.2H30V38.4H28.8zM30,37.2H31.2V38.4H30zM32.4,37.2H33.6V38.4H32.4zM37.2,37.2H38.4V38.4H37.2zM4.8,38.4H6V39.6H4.8zM6,38.4H7.2V39.6H6zM7.2,38.4H8.4V39.6H7.2zM8.4,38.4H9.6V39.6H8.4zM9.6,38.4H10.8V39.6H9.6zM10.8,38.4H12V39.6H10.8zM12,38.4H13.2V39.6H12zM14.4,38.4H15.6V39.6H14.4zM18,38.4H19.2V39.6H18zM25.2,38.4H26.4V39.6H25.2zM28.8,38.4H30V39.6H28.8zM30,38.4H31.2V39.6H30zM31.2,38.4H32.4V39.6H31.2zM33.6,38.4H34.8V39.6H33.6zM34.8,38.4H36V39.6H34.8zM37.2,38.4H38.4V39.6H37.2zM38.4,38.4H39.6V39.6H38.4z" id="qr-path" fill="#000000" fill-opacity="1" fill-rule="nonzero" stroke="none" /></svg>